<svg xmlns="http://www.w3.org/2000/svg" viewBox="0 0 16 14.93"><defs><style>.cls-1{opacity:0.45;}.cls-2{fill:none;stroke:#ccc9c9;stroke-width:1.4px;}</style></defs><title>blockss</title><g id="Слой_2" data-name="Слой 2"><g id="Слой_1-2" data-name="Слой 1"><g class="cls-1"><path class="cls-2" d="M.84.7H15.16a.14.14,0,0,1,.14.13v5a.14.14,0,0,1-.14.13H.84A.14.14,0,0,1,.7,5.81v-5A.14.14,0,0,1,.84.7M1.5,9H2.84m0,0H15.16a.14.14,0,0,1,.14.13v5a.14.14,0,0,1-.14.13H.84A.14.14,0,0,1,.7,14.1v-5A.14.14,0,0,1,.84,9H1.5"/></g></g></g></svg>