<svg width="16" height="16" viewBox="0 0 16 16" fill="none" xmlns="http://www.w3.org/2000/svg">
<path d="M8 0C3.58881 0 0 3.58881 0 8C0 12.4112 3.58881 16 8 16C12.4112 16 16 12.4112 16 8C16 3.58881 12.4112 0 8 0ZM8 15.4667C3.88294 15.4667 0.533344 12.1171 0.533344 8C0.533344 3.88294 3.88294 0.533344 8 0.533344C12.1171 0.533344 15.4667 3.88294 15.4667 8C15.4667 12.1171 12.1171 15.4667 8 15.4667Z" fill="white"/>
<path d="M7.99966 1.33337C4.32366 1.33337 1.33301 4.32403 1.33301 8.00003C1.33301 11.676 4.32366 14.6667 7.99966 14.6667C11.6757 14.6667 14.6663 11.676 14.6663 8.00003C14.6663 4.32403 11.6757 1.33337 7.99966 1.33337ZM7.99966 14.1334C4.61779 14.1334 1.86632 11.3819 1.86632 8.00003C1.86632 4.61816 4.61779 1.86669 7.99966 1.86669C11.3815 1.86669 14.133 4.61816 14.133 8.00003C14.133 11.3819 11.3815 14.1334 7.99966 14.1334Z" fill="white"/>
<path d="M13.0514 6.31115C13.0024 6.17222 12.8501 6.0994 12.7112 6.1485C12.5722 6.19756 12.4994 6.34984 12.5485 6.48878C12.7154 6.96078 12.8 7.46931 12.8 7.99997C12.8 8.53062 12.7154 9.03915 12.5485 9.51115C12.4994 9.65009 12.5722 9.80234 12.7112 9.85143C12.7405 9.86184 12.7704 9.8669 12.8 9.8669C12.9099 9.8669 13.0128 9.79837 13.0514 9.68878C13.2384 9.15972 13.3333 8.59143 13.3333 7.99997C13.3333 7.4085 13.2384 6.84025 13.0514 6.31115Z" fill="white"/>
<path d="M11.7624 6.96698L11.7184 6.84458C11.6694 6.70564 11.5168 6.63258 11.3782 6.68192C11.2392 6.73098 11.1664 6.88326 11.2155 7.02217L11.2608 7.1483C11.3622 7.42883 11.467 7.7187 11.467 8.00001C11.467 8.28133 11.3622 8.5712 11.2608 8.85148L11.2155 8.97761C11.1664 9.11655 11.2392 9.2688 11.3782 9.31789C11.4075 9.3283 11.4373 9.33336 11.467 9.33336C11.5768 9.33336 11.6798 9.26508 11.7184 9.15548L11.7624 9.03308C11.8739 8.72433 12.0003 8.3747 12.0003 8.00005C12.0003 7.62539 11.8739 7.27576 11.7624 6.96698Z" fill="white"/>
<path d="M3.2003 7.99995C3.2003 7.46929 3.28484 6.96076 3.45177 6.48876C3.50084 6.34982 3.42805 6.19758 3.28912 6.14848C3.15018 6.09942 2.99793 6.17223 2.94887 6.31114C2.76193 6.8402 2.66699 7.40848 2.66699 7.99995C2.66699 8.59142 2.76193 9.15967 2.94887 9.68901C2.98752 9.79836 3.09046 9.86689 3.20034 9.86689C3.22993 9.86689 3.2598 9.86183 3.28915 9.85142C3.42809 9.80236 3.5009 9.65007 3.4518 9.51114C3.28484 9.03914 3.2003 8.53061 3.2003 7.99995Z" fill="white"/>
<path d="M4.73947 8.85174C4.63812 8.57121 4.53334 8.28134 4.53334 8.00003C4.53334 7.71871 4.63816 7.42884 4.73947 7.14831L4.78481 7.02218C4.83387 6.88324 4.76109 6.73099 4.62216 6.68193C4.48322 6.63287 4.33097 6.70565 4.28191 6.84459L4.23791 6.96699C4.12641 7.27574 4 7.62537 4 8.00003C4 8.37468 4.12641 8.72431 4.23787 9.03309L4.28188 9.15549C4.32053 9.26484 4.42347 9.33337 4.53334 9.33337C4.56294 9.33337 4.59281 9.32856 4.62216 9.31818C4.76109 9.26912 4.83391 9.11684 4.78481 8.9779L4.73947 8.85174Z" fill="white"/>
<path d="M7.46685 3.7334C7.31966 3.7334 7.2002 3.85287 7.2002 4.00005V11.7334C7.2002 11.8806 7.31966 12.0001 7.46685 12.0001C7.61404 12.0001 7.73351 11.8806 7.73351 11.7334V4.00005C7.73354 3.85287 7.61407 3.7334 7.46685 3.7334Z" fill="white"/>
<path d="M8.79986 3.7334C8.65267 3.7334 8.5332 3.85287 8.5332 4.00005V11.7334C8.5332 11.8806 8.65267 12.0001 8.79986 12.0001C8.94705 12.0001 9.06652 11.8806 9.06652 11.7334V4.00005C9.06652 3.85287 8.94705 3.7334 8.79986 3.7334Z" fill="white"/>
<path d="M8.8001 7.46667H7.2001C6.61182 7.46667 6.13344 6.98827 6.13344 6.40002C6.13344 5.81177 6.61185 5.33336 7.2001 5.33336H10.1334C10.2806 5.33336 10.4001 5.21389 10.4001 5.06671C10.4001 4.91952 10.2806 4.80005 10.1334 4.80005H7.2001C6.31797 4.80005 5.6001 5.51764 5.6001 6.40005C5.6001 7.28245 6.31797 8.00005 7.2001 8.00005H8.8001C9.38838 8.00005 9.86675 8.47846 9.86675 9.06671C9.86675 9.65499 9.38835 10.1334 8.8001 10.1334H5.86675C5.71957 10.1334 5.6001 10.2528 5.6001 10.4C5.6001 10.5472 5.71957 10.6667 5.86675 10.6667H8.8001C9.68222 10.6667 10.4001 9.94908 10.4001 9.06667C10.4001 8.1843 9.68222 7.46667 8.8001 7.46667Z" fill="white"/>
</svg>
