<svg width="16" height="16" viewBox="0 0 16 16" fill="none" xmlns="http://www.w3.org/2000/svg">
<path d="M10.3333 12H9.66669C9.48259 12 9.33334 12.1493 9.33334 12.3333V14.6667H1.33334V1.33334H9.33334V3.66669C9.33334 3.85078 9.48259 4.00003 9.66669 4.00003H10.3333C10.5174 4.00003 10.6667 3.85078 10.6667 3.66669V1.33334C10.6667 0.596969 10.0697 0 9.33334 0H1.33334C0.596969 0 0 0.596969 0 1.33334V14.6667C0 15.4031 0.596969 16 1.33334 16H9.33334C10.0697 16 10.6667 15.4031 10.6667 14.6667V12.3333C10.6667 12.1492 10.5174 12 10.3333 12Z" fill="#CCC9C9"/>
<path d="M15.8919 7.75417L11.8919 4.08752C11.7943 3.99864 11.6527 3.97424 11.5326 4.02827C11.4115 4.08133 11.3333 4.20111 11.3333 4.33327V4.99996C11.3333 5.09436 11.3734 5.18452 11.4437 5.24768L13.7609 7.3333H4.33334C4.14909 7.3333 4 7.48239 4 7.66664V8.3333C4 8.51755 4.14909 8.66664 4.33334 8.66664H13.7609L11.4437 10.7523C11.3734 10.8154 11.3333 10.9056 11.3333 11V11.6666C11.3333 11.7988 11.4115 11.9186 11.5326 11.9716C11.5755 11.9909 11.6214 12 11.6667 12C11.7484 12 11.8291 11.9697 11.8919 11.9124L15.8919 8.24574C15.9609 8.18258 16 8.09339 16 7.99996C16 7.90652 15.9609 7.81733 15.8919 7.75417Z" fill="#CCC9C9"/>
</svg>
