<svg xmlns="http://www.w3.org/2000/svg" viewBox="0 0 20 14"><defs><style>.cls-1,.cls-2{fill:#828282;}.cls-1{fill-rule:evenodd;}</style></defs><title>eye-closed</title><g id="Слой_2" data-name="Слой 2"><g id="Слой_1-2" data-name="Слой 1"><path class="cls-1" d="M10,8.5A1.5,1.5,0,1,1,11.5,7,1.5,1.5,0,0,1,10,8.5Zm0-5A3.5,3.5,0,1,0,13.5,7,3.5,3.5,0,0,0,10,3.5Zm.22,8.5c-4.31.1-7.12-3.58-8-5,1-1.61,3.61-4.89,7.61-5,4.29-.11,7.11,3.59,8,5C16.8,8.61,14.22,11.9,10.22,12Zm9.65-5.5C19.23,5.39,15.71-.18,9.73,0,4.2.14,1,5,.13,6.5a1,1,0,0,0,0,1C.76,8.6,4.16,14,10,14h.25c5.53-.14,8.74-5,9.6-6.5A1,1,0,0,0,19.87,6.5Z"/><rect class="cls-2" x="9.41" y="-4" width="1.39" height="21.33" transform="translate(10.03 -5.45) rotate(56.24)"/></g></g></svg>