<svg width="13" height="15" viewBox="0 0 13 15" fill="none" xmlns="http://www.w3.org/2000/svg">
<path d="M11.8632 0H2.32028C2.06943 0 1.86618 0.203361 1.86618 0.454101V1.86618H0.454101C0.203361 1.86618 0 2.06943 0 2.32028V14.5459C0 14.7967 0.203361 15 0.454101 15H9.99697C10.2478 15 10.4511 14.7967 10.4511 14.5459V13.1339H11.8632C12.1139 13.1339 12.3173 12.9305 12.3173 12.6798V0.454101C12.3173 0.203361 12.1139 0 11.8632 0ZM9.54287 14.0918H0.908201V2.77439H6.88727V4.97588C6.88727 5.22674 7.09052 5.42998 7.34137 5.42998H9.54287V14.0918ZM7.79547 4.52178V3.41651L8.90074 4.52178H7.79547ZM11.409 12.2257H10.4511V4.97588C10.4511 4.97359 10.4507 4.97165 10.4507 4.96936C10.4505 4.95791 10.4499 4.94647 10.4489 4.93503C10.4488 4.93319 10.4487 4.93125 10.4484 4.92942C10.4379 4.82768 10.3935 4.73018 10.3181 4.65476L7.66238 1.99916C7.58696 1.92363 7.48934 1.87912 7.38749 1.8687C7.38589 1.86847 7.38428 1.86847 7.38257 1.86824C7.3709 1.86721 7.35922 1.86653 7.34744 1.86641C7.34538 1.86641 7.34343 1.86607 7.34137 1.86607H2.77439V0.908201H11.409V12.2257Z" fill="white"/>
</svg>
