<svg width="22" height="22" viewBox="0 0 22 22" fill="none" xmlns="http://www.w3.org/2000/svg">
<circle cx="11" cy="11" r="11" fill="#53659B"/>
<path d="M15.2067 7.87067C14.689 7.30922 13.9787 7 13.2065 7C12.6293 7 12.1006 7.1825 11.6352 7.54237C11.4004 7.72403 11.1876 7.94627 11 8.20567C10.8125 7.94635 10.5996 7.72403 10.3647 7.54237C9.89938 7.1825 9.37074 7 8.7935 7C8.02126 7 7.31088 7.30922 6.79323 7.87067C6.28175 8.42555 6 9.18361 6 10.0053C6 10.851 6.31517 11.6252 6.99182 12.4417C7.59714 13.172 8.46712 13.9135 9.47458 14.772C9.81859 15.0652 10.2085 15.3975 10.6134 15.7515C10.7204 15.8452 10.8576 15.8968 11 15.8968C11.1423 15.8968 11.2796 15.8452 11.3864 15.7517C11.7913 15.3976 12.1815 15.0651 12.5257 14.7718C13.533 13.9134 14.4029 13.172 15.0083 12.4416C15.6849 11.6252 16 10.851 16 10.0052C16 9.18361 15.7182 8.42555 15.2067 7.87067Z" fill="white"/>
</svg>
