<svg width="16" height="16" viewBox="0 0 16 16" fill="none" xmlns="http://www.w3.org/2000/svg">
<path d="M15.1464 3.56725H12.927C13.2893 3.17443 13.5112 2.65012 13.5112 2.07484C13.5112 2.07484 13.5107 1.98702 13.5099 1.96196C13.4859 1.25202 13.0987 0.618896 12.4743 0.268208C11.8372 -0.0894806 11.0782 -0.0893869 10.4441 0.268551L9.43468 0.838209C8.80252 1.19499 8.3078 1.73274 8.00002 2.36506C7.69223 1.73274 7.19751 1.19499 6.56539 0.83824L5.55601 0.26852C4.92185 -0.0893869 4.16288 -0.0895119 3.52579 0.268176C2.90132 0.618833 2.51416 1.25199 2.49019 1.96193C2.48935 1.98699 2.48891 2.07481 2.48891 2.07481C2.48891 2.65009 2.71076 3.1744 3.0731 3.56725H0.853627C0.382938 3.56725 0 3.95021 0 4.4209V6.44697C0 6.91766 0.382938 7.3006 0.853627 7.3006H1.24444V14.9803C1.24444 15.451 1.62738 15.834 2.09807 15.834H13.9019C14.3726 15.834 14.7556 15.451 14.7556 14.9803V7.30056H15.1464C15.6171 7.30056 16 6.91763 16 6.44694V4.42087C16 3.95021 15.6171 3.56725 15.1464 3.56725ZM9.78418 1.45749L10.7936 0.887834C11.2095 0.653083 11.7076 0.653271 12.1261 0.888271C12.5321 1.11618 12.7837 1.52652 12.7992 1.98599C12.7997 2.00305 12.8 2.07484 12.8 2.07484C12.8 2.89778 12.1305 3.56728 11.3076 3.56728H8.37589C8.48249 2.68765 9.00174 1.89905 9.78418 1.45749ZM3.20085 1.98596C3.21638 1.52652 3.46798 1.11618 3.87388 0.88824C4.08332 0.770646 4.31257 0.711896 4.54157 0.711896C4.77023 0.711896 4.99863 0.770521 5.20642 0.887834L6.21579 1.45749C6.99823 1.89905 7.51748 2.68765 7.62405 3.56721H4.69238C3.86948 3.56721 3.19998 2.89771 3.19998 2.07481C3.20001 2.07484 3.20029 2.00302 3.20085 1.98596ZM6.40004 8.38222H4.93623C4.73985 8.38222 4.58067 8.54144 4.58067 8.73779C4.58067 8.93413 4.73985 9.09335 4.93623 9.09335H6.40004V15.1228H2.09807C2.01947 15.1228 1.95557 15.0589 1.95557 14.9804V7.30056H6.40004V8.38222ZM6.40004 6.5895H0.853627C0.775033 6.58947 0.711126 6.52556 0.711126 6.447V4.42093C0.711126 4.34231 0.775064 4.2784 0.853627 4.2784H6.40004V6.5895ZM8.88883 15.1228H7.11117V4.27834H8.88883V15.1228ZM14.0445 14.9803C14.0445 15.0589 13.9805 15.1228 13.902 15.1228H9.59996V9.09332H10.9548C11.1512 9.09332 11.3104 8.9341 11.3104 8.73775C11.3104 8.54141 11.1512 8.38219 10.9548 8.38219H9.59996V7.30056H14.0445V14.9803H14.0445ZM15.2889 6.447C15.2889 6.52556 15.225 6.5895 15.1464 6.5895H9.59996V4.27837H15.1464C15.225 4.27837 15.2889 4.34231 15.2889 4.4209V6.447H15.2889Z" fill="#CCC9C9"/>
</svg>
